<?xml version="1.0" standalone="no"?><!DOCTYPE svg PUBLIC "-//W3C//DTD SVG 1.1//EN" "http://www.w3.org/Graphics/SVG/1.1/DTD/svg11.dtd"><svg t="1622947414400" class="icon" viewBox="0 0 1024 1024" version="1.1" xmlns="http://www.w3.org/2000/svg" p-id="845" xmlns:xlink="http://www.w3.org/1999/xlink" width="200" height="200"><defs><style type="text/css"></style></defs><path d="M126.226746 818.881538V252.019225a43.426633 43.426633 0 0 1 43.426633-43.426632h699.892564a43.426633 43.426633 0 0 1 43.426633 43.426632v566.862313a205.118462 205.118462 0 0 1-205.118462 205.118462h-376.364151A205.118462 205.118462 0 0 1 126.226746 818.881538z" fill="#646BB0" p-id="846"></path><path d="M389.102629 224.949958v-6.224484a131.872208 131.872208 0 1 1 263.744417 0v6.224484h86.853265v-6.224484a218.725474 218.725474 0 1 0-437.450947 0v6.224484z" fill="#646BB0" p-id="847"></path><path d="M65.863726 184.707945m43.426633 0l805.419282 0q43.426633 0 43.426633 43.426632l0 0q0 43.426633-43.426633 43.426633l-805.419282 0q-43.426633 0-43.426633-43.426633l0 0q0-43.426633 43.426633-43.426632Z" fill="#9A9ACB" p-id="848"></path><path d="M316.435397 720.013571m0-43.426633l0-174.575064q0-43.426633 43.426633-43.426632l0 0q43.426633 0 43.426633 43.426632l0 174.575064q0 43.426633-43.426633 43.426633l0 0q-43.426633 0-43.426633-43.426633Z" fill="#CDCBE5" p-id="849"></path><path d="M628.23862 720.013571m0-43.426633l0-174.575064q0-43.426633 43.426633-43.426632l0 0q43.426633 0 43.426633 43.426632l0 174.575064q0 43.426633-43.426633 43.426633l0 0q-43.426633 0-43.426633-43.426633Z" fill="#CDCBE5" p-id="850"></path></svg>