<?xml version="1.0" standalone="no"?><!DOCTYPE svg PUBLIC "-//W3C//DTD SVG 1.1//EN" "http://www.w3.org/Graphics/SVG/1.1/DTD/svg11.dtd"><svg t="1622947621272" class="icon" viewBox="0 0 1024 1024" version="1.1" xmlns="http://www.w3.org/2000/svg" p-id="1713" xmlns:xlink="http://www.w3.org/1999/xlink" width="200" height="200"><defs><style type="text/css"></style></defs><path d="M1015.316 804.64l-0.02 0.02a3095.664 3095.664 0 0 1-10.528 113.28c-3.998 35.974-33.13 63.954-69.208 66.838-282.354 22.726-564.75 22.726-847.106 0-36.262-2.906-65.252-31.152-69.27-67.292-25.776-231.524-25.57-463.048 0.576-694.574 3.852-34.078 30.308-61.256 64.242-66.242 129.824-19.12 246.112-19.574 357.764-1.34 33.358 5.44 59.092 32.452 62.882 66.014 0.494 4.348 0.968 8.694 1.442 13.042 4.204 38.53 36.82 67.642 75.574 67.456a5277.76 5277.76 0 0 1 365.862 10.982c38.118 2.472 68.384 32.946 70.712 71.084a3099.226 3099.226 0 0 1-2.922 420.732z" fill="#F1D333" p-id="1714"></path><path d="M1015.296 804.662a3095.664 3095.664 0 0 1-10.528 113.28c-3.998 35.974-33.13 63.954-69.208 66.838-282.354 22.726-564.75 22.726-847.106 0-36.262-2.906-65.252-31.152-69.27-67.292-25.776-231.526-25.57-463.05 0.576-694.576 3.852-34.078 30.308-61.256 64.242-66.242 0 155.95-35.788 675.516 129.35 711.758 165.12 36.244 672.942 65.172 801.944-63.766z" fill="#EAB14D" p-id="1715"></path><path d="M836.488 404.444V52.11c0-16.532-13.402-29.934-29.934-29.934H605.416c-16.532 0-29.934 13.402-29.934 29.934v352.334h-85.512c-26.668 0-40.024 32.244-21.166 51.1l191.07 191.07c25.466 25.466 66.756 25.466 92.222 0l191.07-191.07c18.858-18.858 5.502-51.1-21.166-51.1z" fill="#78D0B1" p-id="1716"></path></svg>