<?xml version="1.0" standalone="no"?><!DOCTYPE svg PUBLIC "-//W3C//DTD SVG 1.1//EN" "http://www.w3.org/Graphics/SVG/1.1/DTD/svg11.dtd"><svg t="1622947625518" class="icon" viewBox="0 0 1024 1024" version="1.1" xmlns="http://www.w3.org/2000/svg" p-id="1866" xmlns:xlink="http://www.w3.org/1999/xlink" width="200" height="200"><defs><style type="text/css"></style></defs><path d="M1024 393.056v548.778C1024 987.222 987.224 1024 941.854 1024H266.88c-38.776 0-71.268-26.868-79.902-63.006l-0.33-46.976-1.916-279.756V82.168C184.734 36.778 221.51 0 266.88 0h364.066c32.718 0 138.682 90.346 232.346 185.494C948.756 272.34 1024 363.18 1024 393.056z" fill="#DDEAFB" p-id="1867"></path><path d="M1024 393.056v201.03c0-0.226-0.02-0.454-0.02-0.7-6.182-246.666-207.108-258.08-272.812-323.786l112.124-84.104C948.756 272.34 1024 363.18 1024 393.056z" fill="#CBE2FF" p-id="1868"></path><path d="M630.936 0H429.906c0.226 0 0.454 0.02 0.7 0.02 246.666 6.182 258.08 207.108 323.786 272.812l84.104-112.124C751.652 75.244 660.81 0 630.936 0z" fill="#CBE2FF" p-id="1869"></path><path d="M1024 393.068v34.754c0-73.172-59.334-132.506-132.506-132.506h-80.648c-45.368 0-82.162-36.794-82.162-82.162V132.506C728.684 59.336 669.35 0 596.178 0h34.754c62.58 0 122.616 24.866 166.866 69.114l157.086 157.086A236.012 236.012 0 0 1 1024 393.068z" fill="#BED8FB" p-id="1870"></path><path d="M885.28 480.064H323.444a15.452 15.452 0 1 1 0-30.904H885.28a15.452 15.452 0 1 1 0 30.904zM885.28 562.264H323.444a15.452 15.452 0 1 1 0-30.904H885.28a15.452 15.452 0 1 1 0 30.904zM885.28 644.46H323.444a15.452 15.452 0 1 1 0-30.904H885.28a15.452 15.452 0 1 1 0 30.904zM529.832 252.078H323.444a15.452 15.452 0 1 1 0-30.904h206.39a15.452 15.452 0 1 1-0.002 30.904z" fill="#475959" p-id="1871"></path><path d="M333.39 1024H121.232c-27.11 0-49.714-20.734-52.05-47.744l-32.344-373.98h380.946l-32.344 373.98C383.104 1003.266 360.498 1024 333.39 1024z" fill="#617881" p-id="1872"></path><path d="M174.734 1024H121.226c-27.114 0-49.716-20.728-52.044-47.738L36.834 602.286h96.074l16.03 373.976C150.092 1003.274 161.3 1024 174.734 1024z" fill="#475959" p-id="1873"></path><path d="M260.424 454.284H194.198c-18.04 0-32.662 14.624-32.662 32.662v79.702h131.55v-79.702c0-18.038-14.624-32.662-32.662-32.662z" fill="#617881" p-id="1874"></path><path d="M239.418 454.29c-18.048 0-32.678 14.628-32.678 32.656v79.696H161.536v-79.696c0-18.028 14.608-32.656 32.656-32.656z" fill="#475959" p-id="1875"></path><path d="M405.63 629.008H48.992C21.934 629.008 0 607.074 0 580.016c0-27.058 21.934-48.992 48.992-48.992h356.636c27.058 0 48.992 21.934 48.992 48.992 0.002 27.058-21.932 48.992-48.99 48.992z" fill="#80B4FB" p-id="1876"></path><path d="M167.178 629.01H48.996C21.922 629.01 0 607.068 0 580.016c0-13.536 5.48-25.776 14.34-34.634 8.88-8.88 21.118-14.36 34.656-14.36h118.182a48.742 48.742 0 0 0-34.634 14.36 48.812 48.812 0 0 0-14.34 34.634c-0.002 27.052 21.922 48.994 48.974 48.994z" fill="#5EA5EC" p-id="1877"></path></svg>