<?xml version="1.0" standalone="no"?><!DOCTYPE svg PUBLIC "-//W3C//DTD SVG 1.1//EN" "http://www.w3.org/Graphics/SVG/1.1/DTD/svg11.dtd"><svg t="1622947645398" class="icon" viewBox="0 0 1024 1024" version="1.1" xmlns="http://www.w3.org/2000/svg" p-id="2027" xmlns:xlink="http://www.w3.org/1999/xlink" width="200" height="200"><defs><style type="text/css"></style></defs><path d="M1014.584785 393.050358v548.770122c0 45.389348-36.777472 82.16682-82.144821 82.16682H257.475654c-38.775443 0-71.266977-26.867614-79.900853-63.005095l-0.329995-46.975326-1.915973-279.751984V82.16682C175.330833 36.777472 212.108305 0 257.475654 0h364.060774c32.71753 0 138.680009 90.344703 232.342664 185.491337 85.462773 86.842753 160.705693 177.683449 160.705693 207.559021z" fill="#DDEAFB" p-id="2028"></path><path d="M1014.584785 393.050358v201.027114c0-0.225997-0.02-0.453993-0.02-0.69999C1008.382874 346.715023 807.459759 335.301187 741.756702 269.59613l112.12239-84.102793c85.462773 86.840753 160.705693 177.681449 160.705693 207.557021z" fill="#CBE2FF" p-id="2029"></path><path d="M621.526428 0H420.499314c0.225997 0 0.453993 0.02 0.699989 0.02C667.861763 6.201911 679.277599 207.125027 744.980655 272.830083l84.102793-112.12239C742.240695 75.24292 651.399999 0 621.526428 0z" fill="#CBE2FF" p-id="2030"></path><path d="M1014.584785 393.060357v34.753502c0-73.17095-59.333148-132.504098-132.504098-132.504098h-80.646842c-45.367349 0-82.160821-36.793472-82.160821-82.160821V132.504098C719.273024 59.333148 659.939876 0 586.768927 0h34.753501c62.579102 0 122.61424 24.865643 166.863604 69.113008l157.083745 157.083745a236.004612 236.004612 0 0 1 69.115008 166.863604z" fill="#BED8FB" p-id="2031"></path><path d="M875.878776 387.898432H314.048842a15.451778 15.451778 0 1 1 0-30.903557h561.829934a15.451778 15.451778 0 1 1 0 30.903557zM520.433879 231.470677H314.048842a15.451778 15.451778 0 1 1 0-30.903556h206.385037a15.449778 15.449778 0 0 1 15.451778 15.451778 15.449778 15.449778 0 0 1-15.451778 15.451778z" fill="#80B4FB" p-id="2032"></path><path d="M533.795687 607.913273a250.136409 250.136409 0 0 0-18.223738-27.273608c-7.395894-9.631862-8.883872-22.545676-3.941944-33.637517l9.175869-20.593705c6.915901-15.523777 0.993986-33.763515-13.723803-42.261393l-68.019024-39.271436c-14.717789-8.497878-33.475519-4.507935-43.461376 9.243867l-13.25781 18.259738c-7.141897 9.835859-19.091726 15.005785-31.139553 13.399807a248.308435 248.308435 0 0 0-65.47506-0.031999c-12.021827 1.595977-23.937656-3.597948-31.063554-13.411808l-13.22581-18.215738c-9.985857-13.751803-28.743587-17.741745-43.461376-9.243867l-68.019024 39.271436c-14.717789 8.497878-20.641704 26.737616-13.723803 42.261393l9.161869 20.563705c4.935929 11.077841 3.47595 23.993656-3.917944 33.607518a248.248436 248.248436 0 0 0-32.70953 56.719185c-4.633933 11.237839-15.085783 19.001727-27.17561 20.267709l-22.441678 2.351967c-16.901757 1.771975-29.737573 16.02177-29.737573 33.015526v78.540872c0 16.993756 12.833816 31.245551 29.737573 33.015526l22.423678 2.349966c12.075827 1.265982 22.517677 9.013871 27.15961 20.23371 4.131941 9.981857 8.959871 19.809716 14.507792 29.419578s11.645833 18.705731 18.225738 27.273608c7.395894 9.631862 8.883872 22.545676 3.941944 33.637517l-9.175869 20.593705c-6.915901 15.523777-0.993986 33.763515 13.723803 42.261393l68.019024 39.269436c14.717789 8.497878 33.475519 4.507935 43.461376-9.243867l13.25781-18.259738c7.141897-9.835859 19.091726-15.005785 31.139553-13.399808a248.308435 248.308435 0 0 0 65.47506 0.032c12.021827-1.595977 23.937656 3.597948 31.063554 13.411807l13.22581 18.215739c9.985857 13.751803 28.743587 17.741745 43.461376 9.243867l68.019024-39.271436c14.717789-8.497878 20.641704-26.737616 13.723803-42.261393l-9.161869-20.561705c-4.935929-11.077841-3.47595-23.993656 3.917944-33.607518a248.248436 248.248436 0 0 0 32.70953-56.719186c4.633933-11.237839 15.085783-19.001727 27.17561-20.267709l22.441678-2.351966c16.901757-1.771975 29.737573-16.02177 29.737573-33.015526v-78.540872c0-16.993756-12.833816-31.245551-29.737573-33.015526l-22.423678-2.349967c-12.075827-1.265982-22.517677-9.013871-27.15961-20.233709a250.616402 250.616402 0 0 0-14.509792-29.419578z" fill="#617881" p-id="2033"></path><path d="M439.249044 1019.425366l-0.189997 0.105998c-14.727789 8.499878-33.47152 4.501935-43.465376-9.257867l-13.23381-18.219738a33.013526 33.013526 0 0 0-15.483778-11.697832c5.995914-0.335995 12.013828-0.903987 18.007742-1.703976 12.033827-1.597977 23.941656 3.597948 31.073554 13.401808l13.21181 18.219738a33.009526 33.009526 0 0 0 10.079855 9.151869z" fill="#617881" p-id="2034"></path><path d="M318.518778 732.203489m-161.733679 0a161.733678 161.733678 0 1 0 323.467357 0 161.733678 161.733678 0 1 0-323.467357 0Z" fill="#475959" p-id="2035"></path><path d="M318.518778 732.203489m-64.551074 0a64.551073 64.551073 0 1 0 129.102147 0 64.551073 64.551073 0 1 0-129.102147 0Z" fill="#DDEAFB" p-id="2036"></path></svg>